PathFileType	4	(X/Y/Z)	c:/Users/goper/Files/vsCode/490R/osim_files/C17/C17_Fast_02.trc
DataRate	CameraRate	NumFrames	NumMarkers	Units                	OrigDataRate	OrigDataStartFrame	OrigNumFrames
250.00	250.00	7	36	mm	250.0	1204	2406
                Frame#	Time	LPSIS			LASIS			LTH1			LTH2			LTH3			LTH4			LLFE			LMFE			LSH1			LSH2			LSH3			LSH4			LLMAL			LMMAL			LCAL			LMTP5			LTOE			LMTP1			RPSIS			RASIS			RTH1			RTH2			RTH3			RTH4			RLFE			RMFE			RSH1			RSH2			RSH3			RSH4			RLMAL			RMMAL			RCAL			RMTP1			RTOE			RMTP5		
		X1	Y1	Z1	X2	Y2	Z2	X3	Y3	Z3	X4	Y4	Z4	X5	Y5	Z5	X6	Y6	Z6	X7	Y7	Z7	X8	Y8	Z8	X9	Y9	Z9	X10	Y10	Z10	X11	Y11	Z11	X12	Y12	Z12	X13	Y13	Z13	X14	Y14	Z14	X15	Y15	Z15	X16	Y16	Z16	X17	Y17	Z17	X18	Y18	Z18	X19	Y19	Z19	X20	Y20	Z20	X21	Y21	Z21	X22	Y22	Z22	X23	Y23	Z23	X24	Y24	Z24	X25	Y25	Z25	X26	Y26	Z26	X27	Y27	Z27	X28	Y28	Z28	X29	Y29	Z29	X30	Y30	Z30	X31	Y31	Z31	X32	Y32	Z32	X33	Y33	Z33	X34	Y34	Z34	X35	Y35	Z35	X36	Y36	Z36

1204	4.81200	-1726.01794	1092.92017	272.97562	-1917.55249	1030.50488	372.29468	-1761.95422	728.36902	403.10660	-1759.93909	685.33398	391.90161	-1821.84192	724.11829	400.42157	-1814.91589	680.68585	392.33514	-1723.81091	518.81799	359.15982	-1719.95166	524.21381	235.95868	-1619.79761	300.73758	351.63330	-1612.82776	258.10141	344.17343	-1679.09668	284.58035	352.39197	-1663.96448	244.21925	344.59732	-1602.73792	114.15070	317.12338	-1616.03687	122.85580	231.12219	-1521.77661	81.68192	274.21704	-1709.93835	45.94905	336.65311	-1769.05383	61.27253	269.09882	-1748.79688	45.39161	220.40411	-1729.97351	1085.35327	198.35098	-1904.41565	1044.53406	104.99657	-1934.31116	757.08881	47.76777	-1947.10254	715.43597	50.27676	-1988.37244	776.79620	58.12291	-1999.77600	730.68036	58.77429	-2050.02783	518.55627	76.23046	-2036.31958	525.42517	203.19850	-2025.08142	310.69476	71.93972	-2043.28687	268.94489	84.62911	-2085.72485	327.71729	73.18367	-2093.86426	279.96960	83.60530	-2094.91504	104.16494	111.98028	-2130.28857	128.39561	194.45604	-2045.75159	53.30859	168.52240	-2283.56152	99.53372	170.15636	-2278.92554	124.74883	126.37056	-2225.53052	77.17293	66.50384
1205	4.81600	-1733.21118	1090.81067	272.71588	-1924.19800	1028.82068	372.20078	-1766.54749	728.13715	402.87915	-1764.08093	685.06604	391.63065	-1826.19092	723.38904	400.35953	-1819.16455	680.02618	392.29712	-1726.87390	518.72760	359.09952	-1723.49963	524.01385	236.12772	-1621.83350	301.00897	352.04489	-1614.34802	258.62634	344.03714	-1680.80396	284.65771	352.24146	-1665.32532	244.44444	344.49509	-1603.22058	114.76399	317.03461	-1616.45081	123.33288	231.03700	-1522.09033	82.58168	274.07623	-1709.97717	45.94706	336.65024	-1769.13513	61.16555	269.10822	-1748.95068	45.43795	220.44615	-1736.88892	1083.59595	197.85643	-1911.91284	1043.03625	104.79639	-1941.49353	755.36731	48.05336	-1954.38281	713.65979	50.57758	-1995.52771	775.00494	58.49408	-2006.88623	728.90253	59.04956	-2058.79199	518.07452	77.08407	-2044.15466	524.20587	203.77075	-2038.90051	309.77243	72.20120	-2058.20776	268.36169	84.86642	-2099.10132	328.16525	73.18712	-2107.33472	279.63727	85.71132	-2114.08960	104.95104	111.58915	-2148.64307	129.51231	194.27542	-2065.43970	53.03017	167.58119	-2303.16064	103.88815	170.07156	-2297.76978	129.25018	126.48593	-2245.34790	81.20770	66.15101
1206	4.82000	-1740.05627	1089.08423	272.19144	-1931.00110	1027.14038	372.12143	-1770.95569	727.77490	402.49667	-1768.45105	684.70770	391.35300	-1830.80884	722.58020	400.25821	-1823.49341	679.29254	392.26340	-1730.36755	518.54974	358.90863	-1726.87012	523.84558	235.98663	-1623.44971	301.69730	351.48108	-1615.48767	259.40662	343.83087	-1682.46851	284.78116	352.15417	-1666.86816	244.68912	344.34064	-1603.67810	115.44110	316.89459	-1616.99341	123.85339	230.90909	-1522.38501	83.49625	273.95258	-1709.99121	45.94911	336.63007	-1769.23181	61.07982	269.11267	-1749.01892	45.41580	220.43658	-1743.97681	1081.81494	197.24124	-1919.32971	1041.32263	104.48951	-1948.55627	753.55139	48.15529	-1961.55286	711.73566	50.79090	-2002.62207	773.13599	58.86241	-2013.81982	727.08765	59.46207	-2067.17163	517.35321	77.58899	-2051.89526	522.89648	204.43008	-2052.82373	308.92407	72.38996	-2071.73145	264.07278	88.90741	-2112.51685	328.75424	73.42707	-2118.47388	276.31149	91.80439	-2132.96362	105.92578	111.15963	-2166.69238	130.56963	194.03395	-2085.97754	52.28851	166.87714	-2322.29077	108.54910	170.14330	-2316.06421	133.96568	126.83521	-2264.73535	85.38966	65.91651
1207	4.82400	-1747.04114	1087.22656	271.68442	-1937.74060	1025.45312	372.07620	-1775.62476	727.41638	402.19922	-1772.84302	684.34180	391.11728	-1835.58594	721.82831	400.14978	-1827.23279	678.46014	391.41296	-1733.87256	518.34662	358.73029	-1730.40540	523.57306	235.78526	-1625.68347	302.00372	351.88690	-1617.56750	259.70416	343.79163	-1684.40405	284.89059	352.01266	-1668.34631	244.90459	344.25284	-1604.13330	116.10895	316.76373	-1617.68420	124.40902	230.74199	-1522.67542	84.53967	273.86429	-1710.07446	45.96378	336.62210	-1769.32874	60.98033	269.10919	-1749.09949	45.37349	220.41878	-1750.88135	1080.01831	196.71100	-1926.80701	1039.75830	104.23962	-1954.09009	752.09589	46.52703	-1968.63184	709.85291	50.96838	-2009.86438	771.07550	59.41221	-2020.86304	725.19037	59.78299	-2075.73193	516.70300	78.18635	-2059.35669	521.51056	204.90695	-2066.66870	308.23053	72.68884	-2087.56787	267.62051	85.13507	-2125.99829	329.32480	73.76957	-2134.09204	278.53152	90.37836	-2151.63916	107.00517	110.90742	-2184.37256	132.01320	193.80292	-2105.51562	51.85624	166.03943	-2340.89648	113.66087	170.27490	-2334.09424	138.15627	128.02199	-2283.75952	89.60124	65.81061
1208	4.82800	-1754.05847	1085.29041	271.14627	-1944.41272	1023.74152	372.00342	-1780.56421	726.96832	402.00983	-1777.41553	683.94049	390.85748	-1840.32300	720.98407	400.10818	-1831.75977	677.78510	391.32855	-1737.50793	518.10474	358.57330	-1733.78540	523.47241	235.26288	-1627.32104	302.83728	351.14520	-1619.23364	260.28745	343.61597	-1686.29224	284.97437	351.87921	-1671.54944	246.58878	345.03979	-1604.61414	116.76327	316.62222	-1618.21838	124.91707	230.63382	-1523.11255	85.68456	273.68390	-1710.13831	45.98030	336.59836	-1769.43994	60.89210	269.11371	-1749.09436	45.32518	220.43225	-1758.07227	1078.13867	196.11604	-1934.43665	1038.02869	104.02472	-1961.16016	750.08319	46.61378	-1975.72314	707.82520	51.05330	-2016.88635	769.05249	59.67218	-2028.10815	723.22784	60.21944	-2084.48267	515.99707	78.85219	-2067.18604	520.11017	205.50719	-2080.34521	307.63196	72.79305	-2103.27319	273.80707	77.40379	-2139.21655	329.95490	73.99696	-2151.16553	283.07562	84.04422	-2169.32227	107.83879	110.31130	-2201.48926	133.55801	193.58032	-2124.70117	51.52526	165.34590	-2359.00830	119.30508	170.43146	-2351.11621	143.57936	128.37593	-2301.88745	93.99559	65.62386
1209	4.83200	-1760.65784	1083.80444	270.30823	-1951.11072	1022.04480	371.95047	-1785.38684	726.45880	401.74234	-1782.08179	683.45099	390.62030	-1845.29602	720.10565	400.03198	-1836.43567	676.89081	391.21454	-1741.32495	517.74475	358.41479	-1738.11047	522.98828	235.41162	-1629.52368	303.34579	351.08157	-1620.96387	260.86420	343.45834	-1688.32800	285.07462	351.73157	-1671.63403	245.33000	343.97766	-1605.14978	117.57876	316.49567	-1618.89624	125.54079	230.48868	-1523.50110	86.78257	273.59103	-1710.17468	45.99103	336.56284	-1769.55017	60.82448	269.11105	-1749.18896	45.34137	220.39662	-1765.04785	1076.25183	195.49660	-1941.98486	1036.28772	103.76357	-1968.37622	748.13916	46.64817	-1982.90295	705.82312	51.07145	-2024.01672	767.12274	59.91801	-2034.98633	721.29102	60.19332	-2093.43506	515.39154	79.50533	-2074.83838	518.64648	206.00134	-2093.67651	307.12372	72.78139	-2118.24097	277.33765	72.59823	-2152.20557	330.61124	74.12994	-2165.00269	283.95569	84.18539	-2186.93213	108.70021	109.98709	-2218.13867	135.15034	193.46413	-2143.51709	51.06670	164.59532	-2376.39624	125.13127	170.69565	-2367.80322	149.19287	128.64914	-2320.02368	98.42400	65.64505
1210	4.83600	-1767.86658	1081.52063	269.98087	-1957.91943	1020.44897	371.87390	-1790.63928	725.97925	401.58231	-1787.02649	682.89954	390.36780	-1850.24731	719.20825	399.92065	-1841.24194	676.08063	391.13712	-1745.28259	517.46960	358.26566	-1742.58484	522.61963	235.51439	-1631.93127	303.68326	351.32962	-1622.78125	261.50211	343.27841	-1690.14990	284.88922	351.72833	-1673.31909	245.51501	343.82465	-1605.80176	118.37318	316.42712	-1619.58228	126.17178	230.36406	-1523.87561	88.01935	273.47308	-1710.21448	45.99297	336.55188	-1769.66943	60.77631	269.10815	-1749.30505	45.31618	220.42555	-1771.76196	1074.54895	194.70500	-1949.44214	1034.53955	103.57412	-1976.18896	746.14667	47.06058	-1990.10205	703.80237	50.99905	-2031.20947	765.19543	60.15245	-2042.19507	719.34943	60.36479	-2102.51270	514.81738	80.22790	-2082.58350	517.16864	206.46568	-2106.46191	306.84909	72.54619	-2132.60156	278.04456	71.27737	-2164.82056	331.21921	74.15269	-2179.61279	285.28708	82.55708	-2204.12134	109.43334	109.64243	-2234.28809	136.66786	193.39014	-2162.29834	50.40800	164.06099	-2397.28589	132.80261	172.16989	-2383.96118	155.00783	128.90059	-2337.82397	102.99023	65.77956
